<?xml version="1.0" encoding="UTF-8"?>
<svg id="Ebene_1" xmlns="http://www.w3.org/2000/svg" xmlns:xlink="http://www.w3.org/1999/xlink" version="1.1" viewBox="0 0 42 42">
  <!-- Generator: Adobe Illustrator 29.6.1, SVG Export Plug-In . SVG Version: 2.1.1 Build 9)  -->
  <defs>
    <style>
      .st0 {
        fill: none;
      }

      .st1 {
        fill: #aec6dc;
      }

      .st2 {
        fill: #fff;
      }

      .st3 {
        clip-path: url(#clippath);
      }
    </style>
    <clipPath id="clippath">
      <rect class="st0" width="42" height="42"/>
    </clipPath>
  </defs>
  <g class="st3">
    <path class="st1" d="M21,42c11.6,0,21-9.4,21-21S32.6,0,21,0,0,9.4,0,21s9.4,21,21,21"/>
    <path class="st2" d="M18,25.6c3.2-1.4,5.9-4.1,7.3-7.3,0,0-.2,0-.3-.1-.6-.6-1.8-1.4-2.3-2-.4-.5-.3-.7,0-1.3.2-.7,1.6-4,2-4.5.3-.3.5-.4.9-.4.8,0,3.5.7,4.3,1,1,.3.9,1.2.8,2.1-.4,7.9-6.2,15-13.8,17.1-1.3.4-4,.9-5.2.7-.6,0-.7-.4-.8-.8-.3-.8-.9-3.5-1-4.2,0-.5.2-.8.6-1.1.7-.4,3.7-1.7,4.5-1.9.5-.1.9,0,1.2.3l2,2.5Z"/>
  </g>
</svg>