<?xml version="1.0" encoding="UTF-8"?>
<svg id="Ebene_1" xmlns="http://www.w3.org/2000/svg" xmlns:xlink="http://www.w3.org/1999/xlink" version="1.1" viewBox="0 0 42 42">
  <!-- Generator: Adobe Illustrator 29.6.1, SVG Export Plug-In . SVG Version: 2.1.1 Build 9)  -->
  <defs>
    <style>
      .st0 {
        fill: none;
      }

      .st1 {
        fill: #aec6dc;
      }

      .st2 {
        clip-path: url(#clippath-1);
      }

      .st3 {
        fill: #fff;
      }

      .st4 {
        clip-path: url(#clippath);
      }
    </style>
    <clipPath id="clippath">
      <rect class="st0" y="0" width="42" height="42"/>
    </clipPath>
    <clipPath id="clippath-1">
      <rect class="st0" y="0" width="42" height="42"/>
    </clipPath>
  </defs>
  <g class="st4">
    <path class="st1" d="M21,42c11.6,0,21-9.4,21-21S32.6,0,21,0,0,9.4,0,21s9.4,21,21,21"/>
    <path class="st3" d="M11.4,28.9l-.3-.2,7.1-7c.8.7,1.6,2,2.7,2,1.1,0,1.9-1.3,2.7-2l7.1,7-.3.2H11.4Z"/>
    <path class="st3" d="M30.7,12.9l-9.3,9.4c-.2.2-.5.4-.8.2l-9.6-9.6.8-.2h18.2l.7.2Z"/>
  </g>
  <polygon class="st3" points="10.1 27.9 10 27.4 10 14.3 10.1 13.8 17.2 20.9 10.1 27.9"/>
  <g class="st2">
    <path class="st3" d="M31.6,13.8c0,.2,0,.3,0,.5.3,4.2-.2,8.8,0,13l-.2.6-7.1-7,7.2-7.1Z"/>
  </g>
</svg>