<svg width="479" height="481" viewBox="0 0 479 481" fill="none" xmlns="http://www.w3.org/2000/svg">
<path d="M348.667 28.1598C347.066 27.9606 343.148 26.6598 342.913 29.3083C349.316 31.4958 355.898 34.1286 361.722 37.5934C376.128 46.1677 401.011 65.4489 409.792 79.4372C411.894 82.7848 414.726 86.363 414.378 90.4177L418.972 89.2302L417.812 84.0934L420.156 84.0544C427.722 96.1677 437.722 107.035 444.534 119.617C445.261 120.961 450.882 130.656 445.503 127.293C444.898 133.043 449.624 137.16 451.273 142.277L452.413 138.82C454.027 138.476 454.312 139.074 455.324 139.949C461.773 145.527 469.171 178.797 469.718 187.824C469.89 190.707 468.183 189.39 466.245 189.543L467.101 184.691L465.101 176.875C462.738 187.207 467.945 195.191 470.324 204.488C472.07 211.312 479.07 234.675 478.847 239.609C478.624 244.488 473.515 255.062 472.667 260.906C465.464 310.437 460.351 345.738 426.656 385.121C387.378 431.027 308.019 482.328 245.452 480.086C231.925 479.605 181.452 473.023 170.89 467.34C169.445 466.562 169.073 464.082 166.218 462.492C151.198 454.136 131.281 449.89 115.761 441.488C113.152 440.074 97.0969 431.183 96.4875 430.25C95.6086 428.894 95.5461 426.644 97.968 426.992C100.765 427.39 110.288 434.183 114.249 436.086C130.683 443.98 157.722 453.882 175.491 456.691C176.718 456.886 179.491 457.922 179.218 455.843C158.745 448.914 138.222 441.586 119.265 431.066C113.425 427.828 80.2258 407.07 80.0852 402.238L84.7063 399.925C74.6086 390.293 62.8078 378.972 54.9407 367.445C49.1399 358.949 45.3469 349.05 40.9055 339.98C36.8977 331.789 36.5696 325.191 25.8508 327.211L24.761 331.336C23.3078 331.574 22.761 331.332 21.9406 330.129C19.968 327.242 18.6594 316.461 16.9172 312.097C14.7649 306.707 5.07737 294.25 4.2219 291.32C3.36252 288.371 4.93674 286.093 4.74143 283.691C4.1594 276.672 0.885959 267.39 0.671115 261.492C0.522678 257.547 2.76487 252.14 2.91721 247.804C3.23752 238.406 2.16721 228.379 3.01877 219.093C9.18284 151.906 75.9016 61.6598 134.652 29.1247C164.167 12.7809 204.855 2.17157 238.597 0.519224C251.929 -0.133119 262.343 4.18719 275.374 6.3786C285.359 8.05829 296.116 8.36297 306.077 11.3981C317.534 14.8825 335.437 20.5348 345.82 25.8317C346.906 26.3864 348.558 26.4919 348.667 28.1598ZM242.616 6.28094C240.882 6.35907 239.156 5.78875 237.441 5.77313C159.816 5.14813 85.3196 62.113 46.8703 126.925C43.4992 132.613 39.1789 140.257 39.761 146.894C42.8274 147.476 41.7688 146.242 42.5774 144.586C61.511 105.968 107.089 58.1403 144.277 36.4411C173.968 19.1169 205.015 13.8903 238.269 8.24579C239.488 8.03875 242.847 7.94891 242.616 6.28094ZM240.894 17.7927C249.077 18.9372 259.527 16.9528 267.984 17.7927C268.464 14.7888 267.538 15.7263 265.488 15.1598C257.124 12.8473 246.573 14.8434 238.019 15.4997C237.597 16.6598 240.421 17.7302 240.894 17.7927ZM236.859 15.4997L221.882 17.7809C227.011 16.7341 233.601 21.4919 236.859 15.4997ZM308.32 23.57L271.445 15.4958C271.097 17.8161 272.339 18.4958 274.363 18.9059C279.909 20.0309 286.956 20.6091 292.679 21.1794L293.355 24.7028C295.265 25.2145 293.89 22.5817 295.214 22.3239C297.605 21.8552 301.902 23.9919 304.585 24.4294C305.808 24.6247 308.593 25.6442 308.32 23.57ZM214.956 18.9567C204.753 19.4763 192.534 21.738 183.058 25.6598C181.409 26.3395 177.515 27.6481 176.929 29.3122C183.351 28.777 188.781 24.6403 195.128 23.7927C198.698 23.3122 201.226 24.9763 205.105 23.5505C207.429 22.6989 208.292 21.0856 210.011 20.3317C211.73 19.5817 215.085 21.1989 214.956 18.9567ZM312.105 25.3786L311.515 27.2614L320.406 30.0622L320.999 28.1833L312.105 25.3786ZM168.855 31.6403C154.738 35.8747 141.113 42.945 130.816 53.5192C136.452 51.5934 141.003 46.9684 146.183 44.113C153.456 40.1013 163.105 37.7145 168.855 31.6403ZM262.034 34.1481C261.214 33.6091 246.847 39.695 243.21 35.0388C241.839 39.5974 236.73 34.4997 232.253 38.5583C229.581 42.4606 248.804 37.8434 250.312 37.8434C256.87 37.8356 264.921 40.57 271.945 38.7106C274.898 43.7731 274.042 40.7614 277.796 40.8083C283.347 40.8747 296.097 44.2302 301.652 45.777C305.003 46.7145 308.148 49.2848 312.464 49.988C313.644 50.1794 315.558 50.7536 315.234 48.9333L310.64 45.4645L316.39 46.6013L303.73 41.4216C292.827 39.9723 282.902 36.2067 271.866 35.4216C269.57 35.2614 266.765 36.6559 263.882 36.363C261.683 36.1442 262.402 34.3864 262.034 34.1481ZM374.027 55.8239C371.042 51.238 366.659 48.1208 362.12 45.2653C358.874 43.2263 343.198 34.3317 340.605 37.402C346.038 42.5192 354.116 43.7692 360.972 47.5661C365.456 50.0544 369.296 54.0231 374.027 55.8239ZM165.398 43.1638C163.445 42.7653 162.046 43.7263 160.406 44.5036C131.616 58.1325 96.1164 91.527 77.9875 117.699C76.5188 119.816 74.3821 122.324 74.3469 124.996C83.6985 116.855 89.7492 105.429 97.9485 96.1637C108.249 84.527 128.597 66.5895 141.261 57.6364C149.011 52.1598 157.941 48.9528 165.398 43.1638ZM244.925 44.32L236.425 44.4489L227.644 46.6013L244.925 44.32ZM253.003 44.3005V45.4606L264.519 45.4645V44.3044L253.003 44.3005ZM278.566 47.07L278.269 48.7927L288.445 50.5544L288.741 48.8278L278.566 47.07ZM169.995 51.2184V52.8903L176.917 52.8942V51.2223L169.995 51.2184ZM187.015 50.5231L175.468 55.027L176.054 56.5348L187.601 52.0309L187.015 50.5231ZM330.226 51.2341C328.359 52.113 322.421 51.1169 323.316 54.6677L327.921 55.3434L330.226 51.2341ZM159.273 61.2302C159.613 61.027 165.187 55.8473 163.675 54.6872C156.773 59.9606 147.054 63.2927 140.109 68.0075C118.62 82.5856 92.9758 110.215 77.7883 131.332C76.9836 132.453 72.55 139.336 73.1907 139.976C75.2063 140.386 76.0383 138.941 77.2336 137.695C82.4289 132.293 94.4641 114.91 100.284 112.328C105.519 110.004 95.1008 122.5 96.2492 123.843C98.968 120.773 102.542 120.785 105.527 118.726C111.441 114.64 115.773 99.4177 122.741 94.445C119.261 93.6247 118.066 97.9958 114.113 98.5036C107.886 99.3005 117.163 94.113 117.491 93.8044C126.163 85.6052 141.781 69.9411 151.374 64.0309C153.82 62.5231 157.55 62.2653 159.273 61.2302ZM318.695 58.152L306.027 54.6911C307.148 56.4411 311.89 58.5153 313.773 59.0348C314.827 59.3239 318.933 60.277 318.695 58.152ZM121.851 59.5661L115.55 65.9177L116.73 67.0856L123.031 60.738L121.851 59.5661ZM166.542 61.6091C162.37 61.4177 157.507 64.6637 153.968 66.8825C143.499 73.4489 132.37 83.7731 123.902 92.7106C130.21 90.7184 134.757 83.4567 140.081 79.5114C146.277 74.9177 156.406 69.8239 163.503 66.277L166.542 61.6091ZM104.304 76.5934C102.226 76.2145 100.527 78.152 99.6946 80.0309C101.773 80.4098 103.476 78.4723 104.304 76.5934ZM254.144 78.902C247.245 77.3942 240.308 78.988 233.406 80.0544C235.765 84.652 241.929 80.3044 246.081 82.3747L246.089 85.8005C238.792 84.9411 232.656 86.8747 225.894 89.2262C223.488 87.6833 224.921 86.8005 225.343 84.6559C217.257 85.4177 201.37 85.652 201.116 96.1794L197.109 91.5739C194.296 97.7262 192.445 94.8395 188.773 95.8903C184.589 97.0817 169.409 107.14 165.031 110.226C137.148 129.879 123.757 154.355 104.784 181.382C94.7375 195.699 85.925 201.285 81.8547 219.547C79.7375 229.062 79.386 239.785 78.8977 250.019C77.386 281.675 91.4016 308.191 111.781 331.351C131.816 354.117 152.745 366.371 179.968 378.429C209.566 391.543 236.464 394.836 268.441 388.855C271.995 388.191 277.331 387.968 278.839 387.632C280.218 387.328 280.89 384.367 282.503 383.312C284.269 382.16 286.808 382.402 288.628 381.375C303.593 372.937 331.409 360.308 341.718 348.015C364.226 321.172 387.562 265.336 390.152 230.457C391.199 216.34 388.628 192.675 385.05 179.156C382.57 169.789 368.003 149.16 361.851 141.211C344.335 118.578 326.374 105.031 299.749 96.1012C295.792 94.7731 291.499 94.7028 287.546 93.3278L285.14 82.488L280.663 82.3591L281.695 86.7966C279.296 90.9372 265.847 88.0622 265.656 82.3473C260.843 88.1716 256.222 84.363 250.171 85.7458L248.952 83.4997L254.144 78.902ZM294.484 80.0544C294.128 79.7223 289.355 78.613 288.738 78.8981C288.101 80.4333 293.538 81.6247 294.488 81.1833C294.429 80.8122 294.648 80.2067 294.484 80.0544ZM299.105 88.1208C296.062 87.1286 294.749 87.1559 293.343 90.402C295.491 90.5231 298.413 90.7419 299.105 88.1208ZM319.843 100.789L318.128 96.1833L316.417 97.9098L319.843 100.789ZM125.054 104.261C122.976 103.879 121.273 105.816 120.441 107.695C122.523 108.074 124.222 106.136 125.054 104.261ZM113.777 113.742L108.636 118.945L109.82 120.113L114.96 114.914L113.777 113.742ZM128.511 115.785C126.433 115.41 124.73 117.343 123.902 119.222C125.98 119.601 127.679 117.664 128.511 115.785ZM131.222 128.859C132.269 127.875 139.488 123.422 137.722 121.539C132.46 123.062 132.984 124.992 130.855 127.867C129.679 129.453 125.933 131.355 127.929 133.062C129.503 132.078 130.054 129.957 131.222 128.859ZM95.0852 130.75L93.9446 125.004L91.6282 130.75H95.0852ZM101.984 131.906L105.445 124.996C103.652 125.523 98.4485 130.539 101.984 131.906ZM70.8664 138.851L67.4407 137.113L69.1555 131.922C64.5032 134.59 63.1008 137.422 61.6555 142.277L66.8274 139.09L70.8664 141.136V138.851ZM88.1555 142.289L86.4446 136.531L84.7844 139.3L88.1555 142.289ZM73.1789 142.3C70.0774 141.824 70.3352 142.34 68.9133 144.382C66.8547 147.347 63.8352 150.183 63.968 153.808L73.1789 142.3ZM87.0266 149.203C89.4367 148.273 90.8821 146.035 90.4602 143.441C88.3157 144.281 86.9016 147.148 87.0266 149.203ZM87.0071 152.64L84.7024 150.914C80.4524 156.879 74.5032 162.285 73.1946 169.949C76.8938 167.265 78.3391 162.015 80.7492 158.504C81.9875 156.699 84.8039 152.812 87.0071 152.64ZM69.7102 168.793L74.3235 158.425C71.8 159.578 69.9992 162.84 69.1008 165.304C68.7102 166.379 67.5852 169.058 69.7102 168.793ZM45.5149 307.132C42.1047 306.507 43.0696 308.691 43.4758 310.89C47.8157 334.273 62.1164 359.644 78.9992 374.507C91.55 385.562 103.847 397.078 117.027 406.793C123.698 411.711 136.124 418.23 143.866 421.453C154.874 426.031 166.417 426.757 176.827 432.293C184.222 436.226 183.511 435.031 191.906 436.82C193.859 437.234 195.632 437.718 197.667 437.371L174.976 429.531C123.534 409.843 66.2571 370.211 48.5071 316.351C47.3547 312.859 43.1516 312.269 45.5149 307.132ZM98.9407 357.449C91.1282 347.836 80.9016 331.562 74.9914 320.875C73.3508 317.906 73.6282 310.816 68.5774 310.59C74.0891 332.703 88.8547 350.394 104.886 365.91C107.253 361.562 100.601 359.492 98.9407 357.449ZM113.827 351.781C111.64 349.601 109.917 343.375 104.874 341.715C104.023 341.531 104.089 342.925 104.316 343.422C107.488 350.39 124.531 363.593 131.359 368.254C133.226 369.527 148.495 379.281 149.257 378.582C147.933 372.172 141.624 372.543 138.144 370.097C133.05 366.515 117.366 355.312 113.827 351.781ZM68.5617 376.289C68.9407 374.211 67.0032 372.511 65.1242 371.679C64.7492 373.757 66.6828 375.457 68.5617 376.289ZM116.972 376.289C117.351 374.211 115.417 372.511 113.538 371.679C113.159 373.757 115.097 375.457 116.972 376.289ZM160.777 382.066L153.878 379.754C151.366 381.824 160.441 385.078 160.777 382.066ZM153.859 428.175C153.503 427.843 148.73 426.734 148.113 427.019C147.476 428.554 152.913 429.746 153.863 429.304C153.804 428.933 154.023 428.328 153.859 428.175ZM243.784 444.293V445.453L255.296 445.457L255.3 444.297L243.784 444.293ZM221.878 450.05C218.823 446.199 211.355 446.785 206.898 446.617C206.597 448.281 209.077 448.105 210.316 448.355C214.109 449.121 218.081 449.265 221.878 450.05ZM231.093 448.922H224.187V450.05H231.093V448.922ZM255.3 448.922C251.706 449.031 248.05 448.629 244.456 449.015C243.343 449.136 240.12 449.519 240.323 451.203C243.531 451.156 246.773 451.453 249.98 451.078C251.195 450.937 255.386 450.629 255.3 448.922Z" fill="#D0DEEA"/>
</svg>
