<svg width="320" height="433" viewBox="0 0 320 433" fill="none" xmlns="http://www.w3.org/2000/svg">
<path d="M317.199 197.207C311.652 136.746 251.613 55.5351 198.742 26.2538C172.184 11.5468 135.566 1.99993 105.203 0.511653C93.207 -0.0742851 83.8359 3.81243 72.1094 5.78509C63.125 7.29681 53.4414 7.57415 44.4766 10.3007C34.168 13.4413 18.0586 18.5234 8.71484 23.2929C7.73828 23.789 6.25 23.8867 6.15234 25.3867C7.59375 25.2109 11.1172 24.039 11.3281 26.4179C7.53516 27.7148 3.69141 29.2148 0 30.957V37.4374C5.19922 34.7499 11.8672 31.8788 13.4102 33.707C9.77734 37.1249 4.83203 38.6288 0 40.5742V120.137C14.0469 103.891 29.0898 93.5976 50.1719 86.5234C53.7344 85.332 57.5977 85.2695 61.1523 84.0312L63.3203 74.2773L67.3477 74.1601L66.4219 78.1562C68.5781 81.8788 80.6836 79.2929 80.8516 74.1484C85.1836 79.3905 89.3438 75.9648 94.7891 77.2109L95.8828 75.1874L91.2109 71.0468C97.4219 69.6913 103.664 71.1288 109.879 72.0859C107.754 76.2265 102.207 72.3085 98.4688 74.1757L98.4648 77.2577C105.027 76.4843 110.551 78.2226 116.637 80.3398C118.801 78.953 117.512 78.1562 117.133 76.2265C124.406 76.914 138.703 77.1249 138.934 86.5976L142.539 82.453C145.07 87.9921 146.734 85.3905 150.039 86.3359C153.805 87.4101 167.465 96.4609 171.406 99.2382C196.5 116.926 208.547 138.953 225.621 163.273C234.664 176.156 242.594 181.184 246.254 197.613C248.164 206.18 248.477 215.828 248.918 225.039C250.281 253.523 237.664 277.387 219.324 298.226C201.297 318.715 182.465 329.742 157.965 340.594C131.328 352.394 107.121 355.355 78.3477 349.976C75.1484 349.379 70.3477 349.18 68.9883 348.879C67.75 348.601 67.1445 345.937 65.6914 344.992C64.1016 343.953 61.8164 344.168 60.1797 343.246C46.7148 335.652 21.6836 324.289 12.4023 313.223C8.24219 308.262 4.05469 302.187 0 295.414V399.918C31.8281 419.441 67.7617 433.195 99.0352 432.078C111.207 431.641 156.629 425.719 166.133 420.605C167.434 419.906 167.766 417.676 170.34 416.246C183.855 408.723 201.777 404.902 215.742 397.34C218.094 396.066 232.539 388.066 233.086 387.226C233.879 386.008 233.938 383.98 231.758 384.293C229.238 384.656 220.672 390.769 217.105 392.48C202.316 399.582 177.984 408.496 161.992 411.023C160.891 411.195 158.391 412.129 158.637 410.258C177.062 404.023 195.531 397.43 212.59 387.965C217.848 385.047 247.723 366.371 247.848 362.019L243.691 359.937C252.777 351.269 263.395 341.082 270.477 330.711C275.695 323.062 279.109 314.156 283.105 305.996C286.715 298.625 287.012 292.684 296.656 294.504L297.637 298.215C298.941 298.43 299.438 298.211 300.176 297.129C301.949 294.531 303.125 284.828 304.691 280.902C306.633 276.051 315.348 264.84 316.117 262.207C316.891 259.551 315.473 257.5 315.652 255.34C316.172 249.023 319.121 240.668 319.316 235.363C319.445 231.812 317.43 226.945 317.293 223.047C317.004 214.59 317.969 205.562 317.199 197.207ZM100.535 400.91L90.1758 400.914V399.871L100.535 399.867V400.91ZM103.648 406.086C100.766 406.039 97.8477 406.309 94.9609 405.969C93.8672 405.844 90.0977 405.566 90.1758 404.031C93.4062 404.129 96.6992 403.766 99.9336 404.117C100.934 404.223 103.836 404.57 103.648 406.086ZM261.312 334.519C261.652 336.391 259.91 337.922 258.219 338.668C257.879 336.797 259.621 335.266 261.312 334.519ZM181.457 385.363C181.781 385.059 186.074 384.062 186.633 384.32C187.203 385.699 182.312 386.773 181.457 386.375C181.508 386.043 181.312 385.496 181.457 385.363ZM118.172 405.047H111.957V404.031H118.172V405.047ZM133.73 401.957C134.004 403.457 131.77 403.297 130.656 403.523C127.242 404.211 123.664 404.34 120.25 405.047C122.996 401.582 129.723 402.105 133.73 401.957ZM162.457 386.582C208.746 368.863 260.293 333.199 276.266 284.73C277.301 281.586 281.086 281.059 278.961 276.434C282.027 275.871 281.16 277.84 280.793 279.816C276.887 300.859 264.02 323.691 248.828 337.066C237.531 347.012 226.465 357.375 214.605 366.121C208.602 370.543 197.422 376.414 190.453 379.309C180.547 383.43 170.16 384.086 160.793 389.066C154.137 392.605 154.773 391.531 147.223 393.141C145.465 393.512 143.867 393.949 142.039 393.637L162.457 386.582ZM259.227 123.434L257.684 118.762C261.871 121.164 263.133 123.711 264.434 128.082L259.777 125.215L256.145 127.051V124.996L259.227 123.434ZM254.066 128.101C256.855 127.676 256.621 128.137 257.902 129.976C259.758 132.641 262.473 135.195 262.352 138.457L254.066 128.101ZM257.73 148.801C258.086 149.769 259.098 152.18 257.184 151.941L253.031 142.613C255.305 143.648 256.926 146.586 257.73 148.801ZM214.652 338.668C214.312 336.797 216.055 335.266 217.746 334.519C218.086 336.391 216.344 337.922 214.652 338.668ZM175.234 343.867L181.445 341.785C183.703 343.648 175.535 346.578 175.234 343.867ZM226.047 309.09C223.188 315.363 207.852 327.246 201.707 331.437C200.027 332.582 186.285 341.359 185.602 340.734C186.793 334.965 192.469 335.301 195.602 333.098C200.188 329.875 214.297 319.793 217.484 316.613C219.453 314.652 221.004 309.047 225.539 307.555C226.309 307.391 226.25 308.644 226.047 309.09ZM252.43 288.801C253.906 286.129 253.66 279.75 258.203 279.547C253.246 299.445 239.957 315.367 225.531 329.328C223.402 325.418 229.387 323.555 230.883 321.715C237.91 313.066 247.117 298.418 252.43 288.801ZM241.621 137.41L243.695 135.851C247.516 141.223 252.875 146.086 254.051 152.98C250.723 150.566 249.422 145.84 247.254 142.684C246.137 141.059 243.605 137.562 241.621 137.41ZM240.586 128.09L242.125 122.91L243.617 125.402L240.586 128.09ZM238.512 129.129C240.441 129.887 241.715 132.465 241.602 134.312C239.434 133.476 238.133 131.465 238.512 129.129ZM234.348 117.707L235.375 112.539L237.465 117.707H234.348ZM225.027 112.531C226.641 113.004 231.32 117.516 228.141 118.746L225.027 112.531ZM209.461 85.0351C212.598 84.3007 213.672 88.2343 217.23 88.6874C222.828 89.4062 214.48 84.7382 214.188 84.4609C206.383 77.082 192.328 62.9843 183.699 57.6679C181.496 56.3085 178.141 56.0781 176.59 55.1445C176.285 54.9609 171.266 50.3007 172.629 49.2617C178.836 54.0038 187.586 57.0038 193.836 61.246C213.172 74.3671 236.25 99.2265 249.914 118.23C250.641 119.242 254.629 125.434 254.055 126.012C252.238 126.379 251.488 125.078 250.414 123.957C245.742 119.098 234.91 103.453 229.672 101.129C224.961 99.039 234.336 110.285 233.305 111.492C230.855 108.73 227.641 108.742 224.953 106.887C219.633 103.211 215.734 89.5116 209.461 85.0351ZM249.738 105.961C251.059 107.867 252.98 110.125 253.012 112.531C244.598 105.207 239.152 94.9218 231.773 86.582C222.508 76.1132 204.191 59.9687 192.797 51.914C185.82 46.9843 177.785 44.1015 171.078 38.8906C172.836 38.5273 174.094 39.3945 175.57 40.0937C201.473 52.3593 233.422 82.4101 249.738 105.961ZM226.055 68.9726C227.926 68.6327 229.453 70.3749 230.203 72.0624C228.332 72.4062 226.801 70.664 226.055 68.9726ZM214.871 60.4179L209.203 54.7031L210.266 53.6484L215.934 59.3632L214.871 60.4179ZM216.465 103.457L217.531 102.402L222.156 107.082L221.09 108.137L216.465 103.457ZM207.383 93.871C209.254 93.5273 210.785 95.2695 211.531 96.9609C209.66 97.3007 208.129 95.5585 207.383 93.871ZM204.27 104.242C206.141 103.902 207.672 105.644 208.418 107.332C206.551 107.676 205.02 105.934 204.27 104.242ZM195.984 109.418C200.715 110.789 200.246 112.527 202.164 115.113C203.223 116.539 206.594 118.254 204.797 119.785C203.379 118.906 202.883 116.992 201.832 116.004C200.891 115.121 194.395 111.117 195.984 109.418ZM170.047 55.4882C173.801 55.3163 178.18 58.2382 181.363 60.2343C190.781 66.1445 200.797 75.4335 208.418 83.4765C202.742 81.6835 198.648 75.1484 193.859 71.5976C188.281 67.4648 179.168 62.8788 172.781 59.6913L170.047 55.4882ZM167.965 28.5156C180.668 32.332 192.93 38.6913 202.195 48.207C197.121 46.4765 193.027 42.3124 188.367 39.7421C181.82 36.1327 173.141 33.9843 167.965 28.5156ZM151.098 46.8671L151.625 45.5117L162.016 49.5624L161.488 50.9218L151.098 46.8671ZM160.711 47.6445V46.1406L166.938 46.1367L166.941 47.6406L160.711 47.6445ZM126.48 17.1054C135.66 17.5742 146.652 19.6093 155.184 23.1367C156.664 23.7499 160.176 24.9257 160.699 26.4218C154.922 25.9413 150.035 22.2187 144.324 21.457C141.105 21.0234 138.836 22.5195 135.344 21.2382C133.254 20.4726 132.477 19.0195 130.93 18.3437C129.383 17.6679 126.363 19.121 126.48 17.1054ZM106.766 13.996L120.246 16.0468C115.633 15.1054 109.699 19.3827 106.766 13.996ZM99.5117 39.9296L107.156 40.0468L115.059 41.9804L99.5117 39.9296ZM81.8789 39.914H92.2383V40.957L81.8789 40.9609V39.914ZM60.3477 45.539L60.0781 43.9882L69.2344 42.4023L69.5039 43.957L60.3477 45.539ZM54.9062 73.1015C54.9609 72.7656 54.7656 72.2226 54.9102 72.0898C55.2305 71.7851 59.5273 70.789 60.082 71.0468C60.6562 72.4257 55.7656 73.4999 54.9062 73.1015ZM50.7539 79.3476C53.4883 78.453 54.6758 78.4765 55.9375 81.3984C54.0078 81.5077 51.375 81.707 50.7539 79.3476ZM48.4609 41.2421C45.4453 42.0859 42.6133 44.3945 38.7344 45.0273C37.6719 45.2031 35.9492 45.7187 36.2383 44.082L40.3711 40.957L35.1992 41.9804L46.5898 37.3202C56.4023 36.0156 65.3359 32.6288 75.2656 31.9218C77.3281 31.7773 79.8555 33.0312 82.4531 32.7695C84.4297 32.5702 83.7812 30.9921 84.1094 30.7734C84.8516 30.289 97.7812 35.7656 101.055 31.5781C102.285 35.6796 106.887 31.0937 110.914 34.746C113.316 38.2577 96.0195 34.1015 94.6641 34.0976C88.7617 34.0937 81.5156 36.5546 75.1953 34.8827C72.5391 39.4374 73.3047 36.7265 69.9297 36.7695C64.9336 36.8281 53.457 39.8476 48.4609 41.2421ZM37.5547 53.1718C36.6055 53.4296 32.9102 54.289 33.125 52.3788L44.5234 49.2656C43.5156 50.8359 39.2461 52.7031 37.5547 53.1718ZM32.0938 90.746L33.6328 86.6015L35.1719 88.1523L32.0938 90.746ZM28.9648 49.2421L24.8242 49.8515L22.7461 46.1523C24.4258 46.9413 29.7695 46.0468 28.9648 49.2421ZM39.5859 24.5781L31.5859 27.1015L31.0508 25.4062L39.0547 22.8867L39.5859 24.5781ZM73.0195 17.0585C68.0273 18.0702 61.6875 18.5898 56.5352 19.1054L55.9297 22.2773C54.2109 22.7343 55.4453 20.3671 54.2539 20.1327C52.1055 19.7109 48.2344 21.6367 45.8242 22.0273C44.7227 22.207 42.2148 23.1249 42.4609 21.2577L75.6445 13.9882C75.957 16.0781 74.8398 16.6913 73.0195 17.0585ZM105.723 13.996C106.102 15.039 103.562 15.9999 103.137 16.0585C95.7734 17.0898 86.3672 15.3007 78.7578 16.0585C78.3242 13.3554 79.1602 14.1992 81.0078 13.6874C88.5312 11.6054 98.0273 13.4062 105.723 13.996ZM284.137 132.234C281.379 132.758 282.332 131.648 281.602 130.16C264.566 95.4062 223.547 52.3671 190.082 32.8398C163.363 17.2499 135.426 12.5429 105.5 7.46478C104.402 7.28118 101.383 7.19915 101.586 5.69525C103.148 5.76556 104.699 5.25384 106.246 5.24212C176.102 4.67571 243.141 55.9413 277.738 114.266C280.773 119.383 284.66 126.262 284.137 132.234Z" fill="#CFE5E3"/>
</svg>
