<svg width="538" height="543" viewBox="0 0 538 543" fill="none" xmlns="http://www.w3.org/2000/svg">
<path d="M292.648 2.78516C293.609 4.17188 291.32 6.33984 295.836 5.51172L293.844 2.52344C295.051 1.59766 320.258 6.05469 323.855 7.01172C326.082 7.60547 330.5 8.61328 331.844 10.5117C327.261 11.0586 322.664 9.03906 318.324 8.53125C316.203 8.28125 316.48 9.26953 317.836 10.0313C321.375 12.0273 324.855 10.8984 328.109 11.7617C329.601 12.1563 331.156 13.9766 333.297 14.5742C339.633 16.3438 346.215 17.1328 352.383 19.4961C355.277 19.668 353.293 18.1914 352.144 17.7305C349.07 16.4961 343.918 16.9375 343.855 12.5273C348.797 8.17188 394.398 31.2305 399.371 38.5273L397.371 40.5391L395.609 36.7695L384.863 32.0195C388.457 34.0781 390.379 38.2539 393.519 40.3672C398.871 43.9688 408.734 46.9102 414.894 49.9961C422.152 53.6328 446.07 64.8398 450.566 68.8438C452.508 70.5703 455.906 79.0547 458.441 82.4648C459.761 84.2422 462.246 85.2344 462.601 85.8047C463.351 86.9961 462.894 89.3047 463.804 90.8555C464.25 91.6133 469.582 94.6719 471.394 96.5156C486.894 112.297 509.644 148.637 519.054 168.883C522.168 175.582 529.804 191.977 530.445 198.512C531.988 214.297 535.515 230.148 536.761 246.199C541.48 306.883 524.324 399.414 483.711 446.957C472.722 459.824 425.195 501.406 410.586 506.859C407.433 508.039 404.551 507.398 401.133 508.41C391.226 511.344 369.363 524.879 357.836 530.125C349.344 533.988 330.504 541.914 321.308 542.629C320.152 542.723 318.988 542.68 317.84 542.637L317.926 539.734C329 537.516 338.011 532.844 347.969 528.25C365.117 520.336 387.519 509.082 402.773 497.047C404.265 495.871 406.023 494.367 406.859 492.641C393.035 497.566 380.629 506.211 367.211 512.496C341.191 524.68 312.48 533.867 283.844 536.637L285.84 530.652C273.613 530.367 261.539 532.145 249.285 531.688C237.765 531.262 220.625 528.434 209.543 525.422C201.89 523.344 194.054 517.871 185.308 517.844C178.683 517.824 182.187 520.082 181.394 521.633L177.957 523.793L180.816 530.145C180.769 531.051 179.066 530.738 178.379 530.586C170.937 528.91 161.457 521.066 152.863 519.09C147.664 517.891 142.359 517.062 137.054 515.895C134.347 515.297 131.308 516.219 128.828 515.125C126.211 513.969 126.402 510.672 125.125 509.57C119.847 505.031 108.136 500.191 102.308 495.629C98.0779 492.316 94.6247 486.043 90.8318 482.102C82.6677 473.629 72.4919 467.133 64.8279 458.094C58.0271 450.074 49.7107 437.031 43.9841 427.93C41.0271 423.23 29.8162 405.852 28.9216 401.863C28.4685 399.852 30.5623 399.012 30.3552 397.559C29.9216 394.543 23.6091 385.547 22.0935 381.805C7.07397 344.758 -2.969 271.602 0.792719 232.078C5.97241 177.617 33.0896 121.617 70.5154 83.2539C79.0193 74.543 88.5193 69.6758 98.3591 62.5898C100.851 60.7969 105.156 53.4375 108.742 50.9688C119.265 43.7227 131.402 37.7031 141.57 30.5039C147.414 26.3633 151.984 26.8164 157.023 24.4805C158.234 23.918 158.312 22.2773 159.422 21.6758C160.988 20.8242 169.926 15.1445 168.816 19.5117C166.246 19.125 164.996 21.1562 163.5 22.8398C162.855 23.5625 160.051 24.3359 163.32 24.5352L176.765 18.4453L175.82 15.5313C178.148 15.0469 180.828 16.2344 182.969 15.9766C209.656 12.7578 235.535 -1.08594 264.097 5.75781C267.808 6.64453 270.847 9.98828 274.832 9.52344L274.699 3.66016C274.035 2.59375 269.765 3.61719 270.84 0.523438C271.797 -0.242188 291.789 1.54297 292.648 2.78516ZM244.828 12.5313L240.836 12.5273V14.5195L244.824 13.5078L244.828 12.5313ZM213.82 17.5352C207.937 16.375 200.722 17.4922 194.847 19.0469C191.797 19.8516 176.246 25.8516 174.086 27.293C172.113 28.6055 170.926 30.5117 169.816 32.5156C171.863 32.6055 173.863 32.6914 175.863 32.0703C181.66 30.2773 190.023 23.8594 196.621 21.8203C200.929 20.4844 206.273 20.1562 210.816 19.0039C211.949 18.7148 214.066 19.0625 213.82 17.5352ZM321.847 19.5273L304.844 16.5352C305.156 18.3711 306.898 18.2109 308.211 18.6562C310.777 19.5312 316.922 21.2227 319.441 21.4414C321.554 21.625 322.195 22.1055 321.847 19.5273ZM166.508 33.7656L159.437 36.5586L160.011 38.0156L167.082 35.2227L166.508 33.7656ZM157.808 38.5391C152.082 39.7773 146.043 43.2188 140.793 46.0078C125.582 54.0859 113.586 63.4688 100.304 73.5352C99.3708 74.2461 98.1443 75.3867 97.8044 76.5273C99.8201 76.7578 101.402 76.3477 103.179 75.4102C107.496 73.1367 115.168 64.0859 119.851 61.9805C121.851 61.082 122.941 62.5859 124.808 62.5234C125.699 61.8008 121.027 61.3164 124.89 58.1094C130.933 53.0938 138.469 48.7578 145.855 46.0703L157.808 38.5391ZM202.816 42.5312C202.054 42.6953 192.476 44.2695 194.832 46.5312C196.652 45.0977 198.429 45.1055 200.351 44.5195C201.871 44.0586 203.355 45.668 202.816 42.5312ZM176.816 51.5391C175.297 50.1211 170.441 59.1797 170.824 59.5273C176.074 59.3789 178.531 53.8477 183.816 52.0273L175.82 54.5234L176.816 51.5391ZM159.812 59.5391C158.84 58.6445 141.254 69.625 139.324 71.543C137.781 73.0781 136.554 74.0312 136.801 76.5508C131.152 73.043 127.664 80.5312 124.468 83.2656C123.914 83.7422 122.258 83.3086 121.957 83.6523C121.371 84.3281 122.222 86.3945 121.652 87.3594C121.304 87.9414 117.148 88.7383 115.843 90.0742C114.777 91.1602 112.386 96.1367 110.804 97.0742C109.316 97.9609 107.371 96.1562 106.816 96.5312C106.527 96.7266 105.715 101.844 105.019 103.258C102.808 107.754 99.7146 108.094 98.0505 109.852C97.0818 110.871 98.0662 113.844 92.8044 113.559C98.0037 119.02 90.7849 118.324 89.9568 119.699C89.3982 120.629 89.7732 125.73 88.8122 127.547C93.7341 126.699 92.8865 122.742 94.3826 120.625C96.3201 117.875 100.988 111.16 102.871 109.109C106.398 105.27 114.617 99.9062 117.898 96.0898C119.57 94.1445 118.609 89.4062 123.801 93.5391C123.785 92.207 123.703 90.8125 124.34 89.5742C126.5 85.3438 141.101 78.6602 145.336 75.5547C146.859 74.4375 147.566 72.0234 148.035 71.7617C149.136 71.1445 151.172 71.8242 152.769 71.0078C153.738 70.5156 159.859 66.7539 160.511 66.2227C160.886 65.9102 162.984 62.6797 162.816 62.543L154.816 65.5234L159.812 59.5391ZM176.82 65.543C171.547 67.2344 165.773 70.4297 160.926 73.1445C146.105 81.4375 131.082 91.8398 118.808 103.535L139.078 90.5703C148.453 78.0469 165.969 76.3281 176.82 65.543ZM87.1482 76.8789C88.3708 75.5352 92.3669 74.7227 90.3083 71.5391L81.8005 81.5273C84.7458 81.8086 85.6521 78.5234 87.1482 76.8789ZM74.0037 103.73C74.7693 103.207 76.7888 103.742 78.3669 102.621C80.0466 101.426 86.0818 92.1289 88.2888 89.5234C91.0974 86.2148 94.9216 83.3398 97.8005 80.0234L95.3162 77.5391C91.699 81.5391 87.3279 84.9727 83.7732 89.0117C73.5388 100.664 61.0232 118.867 52.9685 132.223C45.4997 144.621 37.6912 157.938 35.8044 172.555L46.9763 147.242C57.4294 139.457 57.3357 122.82 67.363 113.562C68.4412 112.566 69.9099 113.531 71.2654 111.578C72.6755 109.547 73.2224 104.266 74.0037 103.73ZM139.812 81.5469C138.008 81.2188 136.531 82.8984 135.812 84.5273C137.613 84.8555 139.09 83.1758 139.812 81.5469ZM64.7966 102.543C65.1208 102.078 65.1638 100.359 65.9255 99.2148C66.6287 98.1484 72.3552 92.625 68.3083 92.5469C67.6794 95.4219 64.6755 95.2422 64.1091 95.8008C63.3787 96.5234 62.3747 100.406 60.8435 101.871C59.8044 102.867 58.2029 102.355 57.9529 102.641C57.324 103.355 58.3162 106.066 57.3396 107.582C56.7693 108.469 52.1833 109.566 50.3708 111.617C47.8787 114.434 45.1755 122.406 42.9919 126.246C5.00365 192.922 0.632563 253.902 16.0388 328.844C16.7654 332.375 21.5779 354.16 23.3591 354.566L27.5623 352.133L21.0662 323.828C11.5779 266.387 9.94506 198.973 37.613 145.875C39.906 141.469 42.0544 141.293 44.0388 138.262C45.8669 135.473 44.6091 132.836 44.824 132.633C45.1755 132.301 47.1443 132.895 48.7029 130.965C52.6443 126.082 52.738 117.465 57.3591 111.574C58.9958 109.492 59.2537 109.816 61.7888 110.543L61.7849 108.551L59.7888 108.062C60.3982 105.527 63.9255 103.793 64.7966 102.543L64.8044 104.539L66.2849 104.535C67.363 103.637 68.1208 103.016 67.7888 101.543L64.7966 102.543ZM124.808 170.559C125.101 175.027 121.258 175.309 120.383 177.516C119.988 178.508 120.918 180.102 120.383 181.535C119.808 183.066 117.121 189.566 114.785 188.137C111.754 185.16 114.218 184.613 114.801 181.566C112.023 178.773 107.871 195.34 113.804 196.059C111.664 199.648 108.988 193.414 107.261 197.598C106.379 199.734 108.031 201.254 107.664 202.879C107.394 204.055 104.379 206.27 103.265 210.527C90.2458 260.238 102.976 306.688 113.883 355.023C117.422 370.707 122.031 393.648 134.746 404.18C136.844 405.918 139.422 406.082 141.851 408.074C147.191 412.453 152.023 421.297 157.804 426.129C173.703 439.426 189.761 446.488 209.601 450.348C263.094 460.758 302.59 451.23 349.582 426.848C378.344 411.93 401.254 393.656 417.047 364.285C419.449 359.816 418.465 354.781 423.879 355.129L424.832 354.035C421.008 347.887 424.644 346.379 425.629 341.863C431.379 315.461 442.515 288.16 436.578 261.371C426.648 216.586 398.625 157.449 363.328 127.574C350.773 116.949 329.242 102.973 313.859 99.0273C302.5 96.1172 298.371 96.7539 287.433 96.4531C284.25 96.3672 280.433 94.0312 277.254 93.625C247.097 89.7812 214.414 97.1055 189.113 112.336C185.793 114.332 178.676 122.324 174.769 120.059C175.004 115.809 169.64 117.043 166.461 114.668L160.816 119.539L166.855 119.004C168.984 120.449 166.765 122.652 166.781 123.988C166.785 124.391 170.121 124.887 168.808 127.551C162.437 125.871 158.363 133.984 150.812 131.551C154.23 142.039 145.281 139.23 142.308 146.551L139.808 146.047C139.504 142.488 139.789 139.527 141.812 136.559C139.312 135.973 139.125 138.793 137.808 140.047C132.633 144.992 128.355 150.613 124.816 157.062C131.011 158.961 131.105 150.641 135.816 149.039C144.164 146.207 132.027 159.672 131.394 160.641C129.109 164.152 128.851 169.16 124.808 170.559C124.715 169.137 124.543 168.441 123.308 167.578C121.051 169.602 117.664 170.934 117.816 174.559C120.566 171.719 121.625 171.66 124.808 170.559ZM210.832 96.5352C211.496 97.1562 214.797 96.0703 214.804 95.043C214.836 92.0586 208.926 94.7617 210.832 96.5352ZM209.824 97.5508L202.828 95.5469C202.48 100.125 207.254 101.402 209.824 97.5508ZM176.812 102.547C176.308 102.125 166.187 107.504 165.816 109.535C168.855 108.832 172.129 106.645 174.84 105.027C175.386 104.699 178.687 104.113 176.812 102.547ZM180.801 113.539C181.285 113.109 185.297 107.031 182.304 106.555L181.816 109.539L178.828 108.547C179.371 109.047 178.168 115.844 180.801 113.539ZM188.82 107.555L185.832 106.543L185.828 109.539L187.304 109.535L188.82 107.555ZM111.551 110.297L107.558 114.289L108.578 115.305L112.566 111.312L111.551 110.297ZM172.824 114.539C176.492 114.523 176.492 111.566 172.824 111.551V114.539ZM89.7849 141.543L102.797 120.547C95.7732 125.277 93.7771 134.297 87.8122 140.062L89.7849 141.543ZM489.871 126.555C483.691 125.492 488.629 130.887 489.871 129.543V126.555ZM146.808 134.547L146.316 131.555L143.812 134.539L146.808 134.547ZM144.808 138.555C143.769 137.531 140.801 140.543 141.816 141.547C142.855 142.57 145.828 139.562 144.808 138.555ZM58.906 142.355L56.2966 147.836L57.7849 148.547L60.3982 143.066L58.906 142.355ZM80.031 142.793L75.0427 147.785L76.0583 148.801L81.0505 143.809L80.031 142.793ZM43.8044 178.559L53.6716 156.93L54.7888 152.559L48.3083 164.57L43.8044 178.559ZM65.7927 174.562C63.574 174.195 63.0232 175.957 62.3044 177.566C57.2419 188.906 51.6794 218.406 50.8044 231.082C50.1247 240.93 51.9099 252.125 51.449 260.938C51.2654 264.438 48.8787 268.789 49.6247 272.914L46.8005 274.578C46.1794 272.332 47.7224 269.855 47.6951 267.973C47.5076 253.859 45.9138 228.645 48.3787 215.48C49.3513 210.297 54.7927 201.254 49.8044 196.566C49.6482 201.484 47.3005 205.859 46.2419 210.52C45.3435 214.469 43.1951 223.383 42.7615 227.039C41.2029 240.277 40.988 273.09 42.1365 286.762C43.1091 298.328 47.5622 326.273 51.074 336.816C51.5622 338.285 51.9568 339.633 53.2966 340.578C56.9997 337.555 53.7224 333.363 53.406 330.672C52.0544 319.047 50.3396 307.352 50.8005 295.594C53.3435 295.145 52.6052 295.977 53.2458 297.59C57.5701 308.457 58.8552 321.305 61.8083 332.59C63.8201 333.039 61.699 328.41 64.281 329.605C66.6912 330.719 64.6677 334.414 66.7888 334.59C68.1599 326.461 61.656 330.344 60.9216 322.984C60.363 317.414 62.8591 315.777 62.7888 310.594L61.3044 314.586C54.9724 309.293 59.0193 304.25 59.7419 299.035C61.2615 288.07 52.863 276.031 52.7146 263.098C52.5466 248.305 53.613 232.793 55.9958 218.359C56.7029 214.066 58.5505 209.305 59.8591 205.121C59.8201 204.562 58.2107 204.609 58.0544 204.34C56.3162 201.34 63.7576 179.031 65.7927 174.562ZM70.7966 174.562C67.8982 174 69.2029 175.414 68.5427 176.762C66.2654 181.418 64.2771 186.324 63.8083 191.562C67.0896 189.766 66.406 184.859 67.4841 181.746C68.4021 179.09 70.6521 177.352 70.7966 174.562ZM34.7888 175.559L31.8005 175.555C30.3865 185.91 25.6404 194.789 24.1052 205.379C22.7537 214.734 23.2498 222.781 22.8279 232.117C22.6208 236.746 20.9568 241.637 21.7966 246.57C23.031 248.191 23.6052 246.551 23.7927 245.094C24.4607 239.863 23.3513 233.516 23.8005 228.082C24.9373 214.383 28.2185 205.203 31.5427 192.812C32.8591 187.91 33.5818 180.758 34.7888 175.559ZM42.7927 327.59C37.574 303.02 33.5388 280.34 33.7458 255.039C33.863 240.875 34.6755 220.129 37.0466 206.32C38.3474 198.754 42.4607 191.332 42.2927 183.551C41.3669 185.754 39.5427 187.84 38.8357 190.105C27.8943 225.348 28.9294 285.887 38.2537 321.633C38.9255 324.195 39.2263 327.695 42.7927 327.59ZM57.7927 183.566C57.0037 182.633 53.6638 186.352 53.449 186.672C52.613 187.91 51.4372 188.82 51.8044 190.562C54.4685 189.02 57.8201 187.148 57.7927 183.566ZM90.7927 213.562L91.7927 208.566C89.4958 209.203 89.6716 211.738 89.8122 213.562H90.7927ZM89.7966 227.566C88.8904 224.43 89.1638 221.734 89.3083 218.574C86.6755 220.734 84.8005 227.309 89.7966 227.566ZM87.7966 232.566L87.3083 228.578C85.7693 229.656 85.5662 230.723 85.8083 232.566H87.7966ZM88.8122 235.582L84.8083 234.578C85.3982 238.691 88.1755 240.266 85.2185 244.516L87.3083 247.57L88.8122 235.582ZM62.7927 251.57L61.8083 244.582C62.0544 246.66 58.6443 252.305 62.7927 251.57ZM23.7927 281.086C23.6326 271.254 23.906 261.395 23.7927 251.578L22.0974 259.379L22.7966 287.582C25.6208 291.375 23.8005 281.605 23.7927 281.086ZM86.3005 251.566L84.2927 253.578L86.3005 255.59L88.3122 253.578L86.3005 251.566ZM18.7849 253.582C16.1365 250.105 16.6794 262.945 16.8005 263.578C20.2927 261.863 18.3513 256.676 18.7849 253.582ZM62.7888 264.574L61.8083 255.582C61.4529 257.961 60.3005 262.891 62.7888 264.574ZM86.7966 259.574C87.1169 257.684 85.6287 256.258 83.8083 256.582V259.574H86.7966ZM62.7888 280.578L62.3044 268.586C60.613 271.016 60.0427 279.043 62.7888 280.578ZM87.8122 289.582C91.6326 288.039 88.9216 284.34 88.9021 281.969C88.8787 278.742 90.988 271.137 85.8044 270.59C88.3865 273.652 85.2966 275.672 85.1794 277.102C85.0896 278.266 88.5857 286.629 87.8122 289.582ZM75.7966 274.586C73.4412 271.496 72.6521 282.707 75.3044 283.578L75.7966 274.586ZM63.7888 285.582C59.6521 284.91 62.5662 291.527 62.8083 293.586C66.5271 292.047 63.7927 288.246 63.7888 285.582ZM66.7927 301.586C62.4372 300.871 65.5115 310.605 67.7888 311.586L66.7927 301.586ZM22.781 302.586C19.5935 299.223 21.4802 310.691 23.781 310.586L22.781 302.586ZM69.7888 326.59L69.7458 321.145L66.8083 314.598L67.2537 319.641L69.7888 326.59ZM82.8826 321.355L81.5818 321.652L82.9646 327.777L84.2693 327.48L82.8826 321.355ZM76.2107 351.215C73.6404 344.559 74.8279 335.09 70.2927 328.598C68.3513 331.219 71.1677 334.156 71.5583 336.336C72.3787 340.898 72.2849 346.227 73.2458 350.656C74.5662 356.746 78.3162 362.375 79.3044 368.602L84.7927 379.602C82.7927 372.797 80.1404 367.117 78.863 359.945C78.4451 357.594 79.6287 356.273 79.6443 355.059C79.6482 354.801 76.5193 352.012 76.2107 351.215ZM43.7849 331.594C42.0115 331.52 41.656 331.094 41.7849 333.086C42.031 336.918 43.2146 341.656 43.7771 345.543L33.7966 350.59L44.7537 347.621L47.7849 354.602C48.1638 352.137 47.1638 348.422 47.9216 346.227C48.6716 344.047 53.2849 345 52.7927 341.602L46.8083 343.598L43.7849 331.594ZM59.7927 358.598C57.2771 353.117 55.3044 348.848 55.3005 342.602C50.7146 345.82 53.9646 346.836 54.5154 349.391C55.2419 352.77 54.738 358.141 59.7927 358.598ZM69.7966 343.594C65.738 342.395 69.1287 350.891 70.7888 351.594L69.7966 343.594ZM28.7849 354.594L22.8044 356.09C26.8865 364.496 29.0583 374.805 35.781 381.605L31.8083 373.086C32.5935 368.23 35.5076 380.172 35.7302 375.188C33.3083 368.184 29.4568 362.203 28.7849 354.594ZM71.7966 354.594L68.8044 354.605C67.9724 355.316 74.0662 370.559 76.7927 371.605L71.7966 354.594ZM49.7849 388.609L37.8044 363.609C40.0232 372.227 44.4724 381.59 49.7849 388.609ZM64.7888 374.602C64.9412 372.73 65.0662 370.207 62.8083 369.605C62.2966 370.992 64.2107 375.836 64.7888 374.602ZM476.488 383.312L471.156 390.035L472.48 391.082L477.812 384.359L476.488 383.312ZM462.406 406.285L455.726 415.5L457.117 416.508L463.801 407.293L462.406 406.285ZM445.879 429.617C449.504 426.816 454.328 422.359 454.859 417.617C451.398 420.57 446.918 425.168 445.879 429.617ZM449.851 435.609C449.988 435.492 450.101 433.922 450.844 433.141C454.301 429.504 458.863 425.902 459.859 420.617C456.332 423.578 449.179 429.852 447.918 434.18C447.386 436.004 449.25 436.145 449.851 435.609ZM375.402 430.945L370.101 434.469L371.023 435.859L376.324 432.336L375.402 430.945ZM363.851 437.629L340.855 447.609C348.679 445.781 357.738 442.793 363.851 437.629ZM440.863 442.625C437.367 442.723 434.98 445.633 433.867 448.613C436.211 449.879 441.996 443.707 440.863 442.625ZM432.859 449.629C432.238 448.93 424.652 455.352 423.851 456.109C422.066 457.797 419.051 460.016 418.875 462.625C419.531 463.305 430.078 454.668 431.211 453.469C432.449 452.152 433.41 452.188 432.859 449.629ZM328.554 454.34C329.14 453.746 330.672 451.195 329.351 450.629L320.851 455.117C322.023 457.883 327.273 455.648 328.554 454.34ZM418.859 455.629C417.078 455.551 409.539 461.211 410.871 462.625C412.136 462.207 413.265 461.371 414.34 460.605C415.687 459.645 419.191 457.535 418.859 455.629ZM316.84 457.629C309.824 454.516 306.015 459.961 301.164 461.273C288.972 464.578 270.918 466.168 258.488 466.727C256.344 466.824 249.941 467.664 248.836 469.617L272.183 471.66C279.738 467.949 290.613 466.375 299.656 463.941C303.738 462.844 311.875 461.77 315.121 460.398C316.511 459.812 317.136 459.215 316.84 457.629ZM404.859 461.637C393.941 466.551 384 473.246 373.215 478.488C332.023 498.508 289.734 511.102 243.289 508.676C234.793 508.234 194.836 503.871 189.402 500.512C183.371 496.773 182.562 497.262 177.332 494.625C176.398 494.152 174.691 492.602 173.824 494.129C178.961 498.754 187.129 502.578 193.609 505.348C210.265 512.473 223.883 513.914 241.511 516.547C243.734 516.879 251.804 518.598 252.367 518.566C254.168 518.48 255.738 516.129 258.386 515.688C269.531 513.836 279.039 514.828 290.609 511.906C306.91 507.785 320.804 507.371 337.129 501.414C348.57 497.242 355.836 493.746 364.922 486.199C368.113 483.547 379.129 478.168 383.304 476.578C385.668 475.676 389.5 475.773 391.203 474.715C392.304 474.027 392.679 471.145 394.328 469.594C397.054 467.031 403.082 465.848 404.859 461.637ZM218.586 477.906C216.187 476.859 212.105 478.156 209.336 477.613C207.234 477.207 206.679 475.398 205.09 474.863C203.23 474.238 193.156 472.344 197.269 476.68C207.898 480.945 218.211 484.695 229.621 486.34C240.695 487.938 256.234 488.609 267.386 487.684C269.14 487.539 270.664 487.891 271.828 486.117C272.39 484.039 267.179 483.59 266.293 483.59C263.316 483.594 261.269 485.137 258.715 485.105C254.996 485.059 221.254 480.602 219.519 479.625C218.98 479.316 218.883 478.035 218.586 477.906ZM325.847 473.637C323.98 473.371 322.379 473.629 321.844 475.617C323.711 475.887 325.312 475.625 325.847 473.637ZM398.445 475.625L394.465 476.746L395.062 478.855L399.039 477.73L398.445 475.625ZM289.836 483.641C287.277 483.977 283.957 481.273 282.84 484.621C284.523 484.113 289.328 485.855 289.836 483.641ZM366.851 491.641C363.215 492.746 358.246 494.637 355.851 497.625C359.836 497.445 364.336 494.68 366.851 491.641ZM252.828 524.645L243.836 525.629C246.062 525.473 253.433 528.996 252.828 524.645Z" fill="#EBDCED"/>
</svg>
