<svg width="557" height="408" viewBox="0 0 557 408" fill="none" xmlns="http://www.w3.org/2000/svg">
<path d="M397 69.8672C398.68 61.418 400.414 53.6172 404.102 45.7773C412.16 28.6406 423.895 18.6211 439.496 9.4375C441.445 8.28906 443.555 8.13672 445.148 6.62109L446.008 6.52734C446.707 9.23438 449.48 5.24609 449.863 5.13672C451.648 4.64453 454.488 5.55469 455.863 3.26953L456.18 4.09375L456.754 4.22266C463.93 2.07813 471.34 0.636719 478.605 3.26953L479.066 2.09375L477.199 1.38672L478.332 0.488281C484.047 1.44141 489.914 1.60937 495.488 3.27344L494.086 4.19922C496 4.53906 497.676 5.8125 499.711 5.60547L499.242 4.20703C500.559 3.09766 512.559 9.20703 514.211 10.5781C514.578 10.8867 516.164 12.1016 515.656 12.6445C514.965 13.375 513.668 10.0977 512.375 10.7773C513.469 12.8945 516.012 13.2188 517.777 14.5273L518.234 13.5859C520.891 17.4141 528.402 18.3477 531.145 21.3125C532.293 22.5508 533.855 26.0234 535.152 27.625C545.648 40.5703 553.496 49.2969 555.941 66.8672C558.723 86.8281 554.52 116.547 541.438 132.469C531.883 144.102 515.434 153.781 501.594 159.223C500.703 159.574 492.93 161.844 492.453 161.801C491.922 161.754 491.051 161.145 491.27 160.863C493.492 160.277 495.691 159.605 497.828 158.742C502.164 156.984 507.301 154.234 511.398 151.676C513.613 150.293 516.098 148.574 518.004 146.793C514.195 148.102 510.992 150.621 507.383 152.348C499.426 156.156 490.199 159.082 481.422 159.918L481.887 158.047C474.32 159.207 466.602 158.441 459.266 156.516C456.215 155.715 452.473 152.566 450.199 156.176L450.047 156.793L450.934 157.812C448.309 158.207 445.977 155.648 443.457 154.969C441.633 154.477 436.789 154.238 435.445 153.594C434.891 153.328 434.723 152.352 434.164 151.934C432.215 150.48 429.055 149.16 427.371 147.734C425.074 145.785 417.727 138.199 415.77 135.754C406.895 124.68 402.473 111.816 399.574 98.0117L397 80.1875V69.8672ZM460.312 5.61719C456.828 6.01172 452.191 6.85938 449.195 8.79688C448.57 9.20312 447.934 9.35938 448.121 10.3008C448.68 10.7891 453.98 7.69531 455.168 7.26562C456.434 6.80469 457.75 6.75391 459.004 6.40625C459.484 6.27344 460.426 6.28906 460.312 5.61719ZM448.125 18.2734L448.816 18.2695L449.988 17.1016L449.285 16.4023H448.594L448.125 18.2734ZM434.52 17.3398C431.324 18.2734 428.867 21.1953 426.547 23.4297L434.52 17.3398ZM443.344 19.3359C442.367 18.9883 437.777 21.8555 438.262 23.4375C435.438 22.0625 434.676 25.4531 433.449 26.5898C432.734 27.25 429.488 29.168 429.016 29.6523C428.648 30.0234 427.652 33.0234 426.395 34.1016C425.961 34.4727 424.855 33.7695 425.145 34.918C425.988 36.9375 427.406 33.1953 427.629 32.957C431.98 28.332 437.688 24.4258 443.5 20.8984C443.898 20.6562 444.379 20.5977 444.84 20.6133L444.598 19.6758C443.184 20.7148 443.488 19.3867 443.344 19.3359ZM447.648 22.0195L447.422 21.0938C446.816 21.8789 445.23 21.6953 445.309 22.4922L447.648 22.0195ZM426.074 23.9062C425.195 23.7031 424.965 24.4023 424.434 24.8398C422.262 26.6562 420.617 29.0781 419.043 31.4023L420.859 30.6445L426.074 23.9062ZM495.633 32.6602C495.473 32.5742 495.266 31.8242 494.367 31.3672C486.98 27.6094 467.961 27.5859 460.203 30.5938L449.734 36.5859C449.117 36.668 446.973 33.1328 445.773 35.6172L446.984 36.0859C446.418 38.125 447.77 36.9062 447.652 38.4375L442.023 39.8477C442.434 42.3242 441.812 41.7969 440.605 42.8945C440.09 43.3672 440.164 44.8867 438.734 43.8047V41.7266L434.523 47.3516C435.113 47.9648 438.668 42.7734 438.73 45.2422C438.742 45.7109 434.113 51.7344 433.391 53.0234C432.758 54.1523 432.977 55.8828 431.473 56.7266L430.305 55.332L430.289 58.3086L431.234 59.0742L429.582 58.6523C428.453 59.1914 429.383 60.1133 429.215 60.6484C426.102 70.7148 425.332 77.5547 427.152 88.2539C428.301 94.9844 430.914 107.027 432.988 113.375C434.609 118.328 437.527 120.078 441.098 123.559C442.098 124.531 442.719 125.824 443.887 126.867C463.086 143.973 502.621 133.387 517.258 114.387C519.148 111.93 520.234 109.102 521.816 106.73C522.188 106.18 523.148 106.035 523.195 105.676C523.27 105.129 522.672 104.355 522.781 103.504C523.984 93.9883 528.965 88.8086 526.68 77.8398C522.914 59.7617 512.168 41.2891 495.633 32.6602ZM417.164 29.0664C416.184 28.9492 415.414 30.4609 414.812 31.1836C413.578 32.6641 413.266 32.6914 412.262 33.7695C409.98 36.2148 404.676 48.5273 403.43 52.1445C397.449 69.5391 399.293 88.5312 404.043 105.984L405.449 105.242C402.047 91.0352 400.059 75.3789 402.758 60.8477C404.563 51.1172 408.84 43.3789 413.324 35.3008C414.484 33.2109 416.391 31.3594 417.164 29.0664ZM417.168 34.2188C417.746 34.8164 419.301 32.7188 419.039 31.875L417.172 33.5234L417.168 34.2188ZM425.137 36.1016L424.207 36.0977L423.738 38.4414C424.539 38.3438 425.598 36.6094 425.137 36.1016ZM412.895 43.0938L413.879 39.3828C411.578 42.1562 408.98 46.0039 408.73 49.6992L412.082 42.7344L412.895 43.0938ZM404.973 64.707C404.68 60.5664 407.281 57.0742 407.312 52.9844L405.109 58.5117C404.883 60.3281 404.277 62.2617 404.07 64.0508C403.965 64.9805 404.16 64.7188 404.973 64.707ZM409.188 59.0781L409.66 56.2656C408.453 56.6445 408.707 58.0781 408.73 59.0781H409.188ZM411.07 82.0586C410.902 78.207 411.383 74.3984 411.582 70.5703C411.645 69.3984 411.094 68.3828 411.117 67.3359C411.172 64.9258 412.883 62.1133 412.473 59.5508L410.18 67.8047C410.73 73.4141 409.309 79.6562 409.672 85.1055C410.023 90.4375 412.215 95.9023 412.48 101.293C413.363 101.332 413.441 101.516 413.434 100.582C413.398 97.582 411.59 91.6055 412.129 88.918C412.199 88.5508 412.742 88.0117 412.941 88.1602L414.348 91.9102C415.934 87.4492 413.289 84.1523 412.93 79.9688C412.727 77.6328 412.77 73.8711 412.941 71.5078C413.191 68.082 415.016 63.9375 414.348 60.4883C413.059 61.8438 412.656 65.3906 412.484 67.2969C412.094 71.5625 413.035 76.8828 412.02 80.9219C411.82 81.707 412.488 82.2891 411.07 82.0586ZM409.656 97.5391C409.352 92.7812 407.625 87.9727 407.301 83.2539C406.812 76.1914 407.832 69.5273 408.273 62.6133C408.309 62.1055 408.598 60.4023 407.793 60.4883C406.77 70.3359 405.895 80.3477 407.438 90.1523C407.688 91.7539 408.258 94.3672 408.703 95.9219C408.887 96.5586 408.758 97.375 409.656 97.5391ZM404.035 68.4609L404.031 73.6172H404.504L404.508 68.4609H404.035ZM423.73 81.125C423.438 80.7617 423.117 80.7344 422.934 81.5703C422.605 83.0742 423.395 84.7539 423.27 86.2812C424.09 86.3906 423.711 85.2148 423.734 84.6484C423.781 83.4766 423.699 82.293 423.73 81.125ZM411.246 102.562C410.48 101.484 410.934 99.9844 409.668 99.418L409.773 103.551L411.535 105.512L411.121 103.207L412.004 102.703C411.781 102.715 411.34 102.695 411.246 102.562ZM420.914 109.734L420.316 105.883L419.047 102.234L419.156 105.168L420.914 109.734ZM413.883 102.699C412.559 100.941 413.277 106.59 414.348 106.449L413.883 102.699ZM405.906 105.984L404.508 107.859L405.906 107.391L405.004 108.98L406.844 112.078C407.574 109.941 405.891 108.152 405.906 105.984ZM533.266 125.512L530.328 129.16L530.926 129.641L533.863 125.996L533.266 125.512ZM525.426 134.035L521.594 137.207L522.066 137.781L525.902 134.605L525.426 134.035ZM491.27 136.473C487.691 136.496 484.113 138.078 480.602 138.699C478.258 139.109 475.91 139.016 473.66 139.262C472.961 139.34 472.215 139.367 472.039 140.215C473.809 139.867 476.344 140.609 477.902 140.453C480.766 140.16 486.648 138.387 489.641 137.422C490.258 137.223 491.105 137.41 491.27 136.473ZM514.719 139.289C511.82 140.652 509.047 142.254 506.129 143.59C491.25 150.395 470.07 155.012 454.098 149.488C453.004 149.109 451.477 146.453 450.469 148.656C454.465 150.305 458.293 152.273 462.594 153.086C472.719 155 479.133 153.191 488.793 151.102C489.484 150.953 490.242 151.535 490.93 151.383C493.57 150.797 501.828 147.949 503.918 146.527C504.602 146.062 504.723 145.172 505.215 144.895C507.402 143.645 511.633 142.434 513.285 141.367C513.562 141.188 514.812 139.371 514.719 139.289ZM467.586 145.379C470.809 145.676 474.402 145.164 477.668 145.379C478.027 143.547 474.945 144.738 473.844 144.656C469.141 144.305 464.086 143.059 459.637 142.547C458.672 142.438 457.133 141.129 455.863 141.152C454.992 141.809 455.621 141.91 456.223 142.207C458.695 143.441 464.863 145.129 467.586 145.379ZM472.039 156.172H470.168V156.629L472.035 157.105L472.039 156.172Z" fill="#AE7BB7"/>
<path d="M427.118 336.789C428.845 313.25 428.372 296.191 425.056 273.332C422.114 253.047 421.829 244.746 413.22 225.473C381.239 153.875 337.274 118.863 262.095 97.3829C251.696 94.4102 234.751 93.2774 227.544 89.9922C220.649 86.8516 184.157 89.2344 175.06 90.8516C166.563 92.3633 157.583 96.836 149.224 99.4102C144.63 100.82 138.813 100.832 134.81 102.191C129.864 103.871 122.614 109.891 117.282 112.07C115.138 112.945 112.56 111.875 110.618 113.379C108.989 114.645 102.56 124.363 100.47 126.484C94.1415 132.906 86.5829 135.457 80.2197 141.688L85.2158 142.254C84.872 146.238 88.2079 146.945 86.1572 150.617C83.5595 155.27 75.2665 159.106 71.5908 162.398C58.1728 174.43 47.8134 188.668 38.3173 204.031C37.8056 204.863 37.6767 205.969 37.7157 206.938L31.6689 204.914C26.1142 219.004 20.7197 233.262 17.7939 248.207C14.3056 265.996 14.0478 284.141 12.4228 302.027C11.1298 301.582 10.579 296.539 10.5087 295.352C10.3486 292.707 10.4306 288.453 10.3642 285.379C9.88762 264.367 11.9228 243.566 16.4775 223.129C14.2665 222.758 13.6532 224.535 12.9423 226.16C7.83293 237.863 5.61027 259.223 4.35246 272.199C3.73527 278.586 4.49699 287.145 3.32121 293.426C2.88371 295.77 0.610274 296.152 0.227461 299.457C-1.44832 313.957 6.53215 356.734 11.1611 371.602C14.8681 383.516 21.0829 395.641 29.0048 407.5H142.435C140.763 406.32 139.224 405.07 137.849 403.738C129.126 395.285 117.692 378.836 108.618 372.266C106.423 370.68 104.243 371.137 102.489 369.313L104.435 366.398C99.2158 360.918 95.5439 352.629 92.8798 345.516C86.6103 328.758 84.3603 314.469 85.2822 296.481C86.0908 280.773 89.9853 252.418 95.6142 238.016C105.435 212.891 133.001 182.832 158.895 174.844C165.302 172.867 173.528 173.164 179.431 171.059C181.583 170.289 181.044 168.559 184.31 167.934C206.427 163.703 212.212 171.531 230.415 178.637C261.634 190.824 290.747 195.926 313.927 223.606C315.911 225.969 315.462 228.363 316.892 230.793L319.852 230.25L320.895 233.109L316.938 236.266C324.403 230.891 335.501 251.602 333.036 254.434C332.466 255.086 329.552 253.266 330.134 255.949C330.634 258.25 333.759 261.195 334.907 263.324C335.806 264.992 337.024 273.473 340.212 271.188C343.454 267.391 338.02 263.981 339.204 259.543C344.903 263.953 345.974 272.785 348.317 279.254C346.45 279.902 346.825 276.207 344.657 274.82C342.997 273.762 341.11 273.566 339.2 273.711C337.946 276.477 341.067 276.695 341.2 277.418C341.638 279.797 340.79 282.344 341.333 284.723L346.27 285.859C346.724 288.195 343.985 288.742 343.442 290.602C342.782 292.875 343.341 295.871 343.231 298.281C346.009 301.266 348.685 301.387 352.337 300.016C353.731 305.738 343.997 304.512 342.724 307.117C342.673 308.805 342.442 310.848 342.602 312.492C344.388 330.856 341.474 344.609 332.286 361.391C327.31 370.481 319.056 379.945 312.903 388.547C310.767 391.531 298.095 403.516 295.044 405.117C293.317 406.027 291.13 406.5 288.532 407.5H396.083C407.118 394.848 417.345 368.188 420.634 354.645C422.231 348.063 422.86 341.168 423.165 334.41C426.22 333.699 424.423 335.02 424.595 336.074C424.884 337.828 425.028 339.703 425.192 341.484C426.634 341.602 427.052 337.711 427.118 336.789ZM350.321 331.383L346.286 334.406C346.02 331.856 347.895 330.984 350.321 331.383ZM352.345 315.176C349.919 315.574 348.052 314.707 348.302 312.156L351.2 312.293L352.345 315.176ZM76.1767 258.531C75.4736 257.645 78.3368 249.313 78.7197 247.426C81.3212 234.594 82.8564 228.676 90.7587 217.957C91.1415 217.434 91.8447 214.258 93.3642 216.047C93.8798 216.66 90.8329 222.414 90.1884 223.527C87.1298 228.801 81.8564 241.359 80.454 248.148C79.5283 252.617 82.165 256.961 76.1767 258.531ZM77.1689 262.578L76.1572 268.641L75.1689 268.645C75.1142 266.484 74.5712 263.395 77.1689 262.578ZM71.1064 298.992L71.1103 290.91H72.1259L72.122 298.996L71.1064 298.992ZM67.0751 232.227L68.0908 228.188L70.0986 228.191L67.0751 232.227ZM43.79 365.133L39.997 354.934L41.4853 354.383L45.2782 364.578L43.79 365.133ZM34.6923 353.641L36.7236 352.996L40.7587 365.762L38.7275 366.402L34.6923 353.641ZM31.665 338.461H32.6572L33.6689 344.523C31.1064 343.742 31.6025 340.676 31.665 338.461ZM30.6493 267.645L30.6454 275.727H29.6298V267.645H30.6493ZM31.6454 336.434C28.29 333.535 28.915 326.395 28.6337 322.273C30.0165 322.027 30.1611 324.078 30.3759 325.059C31.1181 328.484 31.2822 332.875 31.6454 336.434ZM33.6689 325.297C31.8017 325.52 32.9462 323.098 32.6923 321.754C32.3954 320.199 31.6493 318.809 31.665 317.211C34.7861 318.438 33.497 322.633 33.6689 325.297ZM56.9462 185.699C57.1025 185.832 55.415 188.887 54.954 189.262C51.6142 191.973 52.8876 185.258 56.9462 185.699ZM106.513 154.34C106.618 156.07 104.442 155.094 102.985 156.356C98.5634 160.199 97.2431 159.766 93.8447 162.395C89.9072 165.441 78.9462 178.625 75.1845 183.188C54.1415 208.715 45.4306 230.688 39.9189 263.254C37.0868 279.973 36.3954 294.856 35.704 311.656C35.6532 312.883 36.4697 315.418 34.7001 315.184C34.3876 311.793 35.1611 307.926 34.6298 304.625C34.2587 302.297 32.0243 299.906 32.0243 298.492C32.0243 297.148 34.3525 294.344 34.7157 291.438C35.5829 284.481 33.5907 277.574 33.5868 271.18C33.579 264.367 37.1611 243.082 39.5361 236.719C40.2704 234.754 41.9931 235.023 42.5712 233.57C44.7118 228.188 45.9931 219.902 48.1142 214.793C50.2157 209.727 54.8368 203.648 57.1845 198.574C58.0361 196.723 57.622 194.16 58.4618 192.773C58.6767 192.414 62.5712 188.824 63.997 187.223C73.1298 176.992 80.622 168.52 92.4423 160.988C96.5048 158.398 101.759 154.52 106.513 154.34ZM107.231 183.363C105.997 184.246 103.653 183.938 102.685 184.895C101.724 185.844 101.935 188.535 100.942 189.719C99.622 191.289 97.1415 190.824 95.6611 192.043C94.6064 192.91 79.4228 211.012 78.3095 212.617C76.4618 215.277 77.2392 220.953 72.122 220.078C78.0087 207.668 86.4579 197.047 95.6962 187.016C98.3173 186.773 108.977 176.07 110.56 177.602C111.142 178.168 107.731 183.004 107.231 183.363ZM417.079 324.285C415.31 324.523 416.134 321.992 416.079 320.762C415.931 317.461 414.927 310.871 418.091 309.117L417.079 324.285ZM406.974 369.809C412.774 360.328 411.657 350.273 413.321 340.207C413.489 339.195 414.388 335.887 416.063 337.445C416.321 337.688 417.06 341.07 417.017 341.887C416.657 349.172 413.212 361.465 409.489 367.82C408.72 369.137 409.669 370.371 406.974 369.809ZM407.997 287.875H408.985V294.949H407.997V287.875ZM404.962 244.375C406.884 245.801 408.153 249.688 409.02 251.93C411.274 257.746 413.435 264.43 414.048 270.668C411.411 271.156 412.27 270.164 411.567 268.656C409.903 265.09 405.239 252.965 404.356 249.422C403.833 247.32 404.446 246.281 404.962 244.375ZM399.903 232.234L403.935 242.34C399.04 242.055 400.813 235.262 399.903 232.234ZM395.841 331.879L394.845 335.414L393.833 326.316C395.747 326.672 395.392 328.707 396.216 330.039C396.563 330.602 398.759 329.863 397.86 332.395L395.841 331.879ZM392.821 352.617L393.833 347.566H394.825C394.978 349.453 395.106 352.012 392.821 352.617ZM386.739 315.691V296.977H387.751V323.281C383.571 321.719 386.739 317.316 386.739 315.691ZM384.728 280.793L386.618 288.5L386.731 295.965C382.665 292.918 385.54 285.305 384.728 280.793ZM379.665 246.398C380.126 245.871 384.329 248.34 384.493 248.621C385.267 249.953 384.513 252.348 384.649 253.941L387.755 254.492L386.712 257.957C389.786 258.953 388.47 261.523 389.536 264.336C390.755 267.547 394.782 269.758 394.782 270.156C394.786 270.711 391.966 271.973 393.915 276.969C395.556 281.16 394.571 278.965 395.134 283.16C395.368 284.891 398.321 288.512 398.806 291.481C399.81 297.633 396.81 297.133 396.817 297.492C396.837 298.547 399.399 302.664 399.774 305.691C400.321 310.059 399.638 314.809 399.888 319.227L397.86 314.176L395.837 319.234L394.044 317.5C393.145 308.328 395.548 293.973 392.645 285.477C392.384 284.715 385.794 280.809 391.79 282.82C392.649 280.375 390.415 278.625 390.106 277.07C388.532 269.137 386.966 258.809 382.673 251.223C382.052 250.117 377.833 248.481 379.665 246.398ZM393.251 221.168C392.282 219.895 390.329 219.398 388.907 217.41C386.489 214.023 388.134 212.281 387.005 209.281C384.895 203.688 378.005 198.723 376.634 192.773C387.532 202.594 392.61 217.277 398.872 230.203C395.731 228.285 395.349 223.934 393.251 221.168ZM372.77 246.793L374.216 246.106L379.466 257.121L378.02 257.809L372.77 246.793ZM363.036 178.543C361.849 177.215 361.477 175.125 359.962 173.523C355.352 168.652 350.352 164.246 345.267 159.887C345.415 158.918 347.517 159.246 348.106 159.637C348.45 159.863 348.661 161.336 349.356 161.816C359.989 169.125 364.313 174.953 372.075 184.676C373.352 186.277 374.321 185.887 372.071 187.695C369.79 184.074 365.493 181.289 363.036 178.543ZM361.442 187.715C354.927 181.727 350.04 175.824 343.153 170.098C331.267 160.207 312.364 147.375 298.399 141C289.645 137.008 278.962 134.981 271.415 129.047C278.075 129.875 286.302 132.961 292.642 135.629C313.899 144.578 344.767 166.336 359.845 183.754C360.802 184.856 361.665 186.152 361.442 187.715ZM334.138 151.305C335.962 150.973 337.454 152.672 338.181 154.32C336.356 154.652 334.864 152.953 334.138 151.305ZM313.907 138.152C316.716 137.68 318.802 139.93 319.974 142.18C319.341 142.738 314.224 139.32 313.907 138.152ZM355.368 194.801V199.856C351.681 199.203 354.841 193.637 355.368 194.801ZM357.915 305.074L358.407 314.172C355.329 312.832 355.638 307.117 357.915 305.074ZM351.341 202.371L353.337 200.875L358.407 209.973L351.341 202.371ZM346.517 203.668L347.548 202.641L351.583 206.676L350.556 207.703L346.517 203.668ZM309.86 206.918L309.864 204.918L313.899 205.941V207.945C312.435 208.125 311.31 206.996 309.86 206.918ZM297.716 196.828L306.821 199.863C305.243 204.242 299.294 198.859 297.716 196.828ZM304.298 174.555L300.751 171.535L304.794 172.555L304.298 174.555ZM287.208 177.231L282.153 174.211L282.935 172.906L287.989 175.926L287.208 177.231ZM282.548 162.406V160.402C284.864 159.996 286.759 161.301 287.599 163.422L282.548 162.406ZM272.427 181.652C274.431 182.453 278.192 183.09 279.821 183.898C281.181 184.57 281.157 185.93 281.841 186.422C282.54 186.93 283.7 186.676 284.563 186.711L282.985 188.691L272.427 181.652ZM269.267 157.273L269.731 155.559L276.852 157.481L276.388 159.199L269.267 157.273ZM260.942 153.531L261.423 151.891L266.349 153.328L265.868 154.973L260.942 153.531ZM259.278 133.09C259.81 132.613 265.079 134.203 266.329 134.629C293.181 143.773 329.915 164.91 347.919 187.059C348.278 187.5 349.501 189.59 349.31 189.727C344.192 189.941 341.845 183.926 338.837 180.992C330.142 172.516 315.673 165.652 305.067 159.113C304.02 158.469 303.602 154.641 300.759 155.348C300.423 157.262 301.044 158.098 302.196 159.457C306.954 165.07 316.888 169.231 323.325 173.738C331.962 179.781 340.27 186.606 346.27 195.309C344.415 196.848 343.376 193.699 341.548 193.07C340.954 192.867 339.696 193.789 339.349 193.59C338.88 193.32 334.083 186.188 332.829 184.984C327.45 179.832 306.513 163.203 300.243 160.902C294.688 158.867 285.173 160.309 280.95 155.414C278.032 152.039 280.497 150.477 273.829 149.379C272.407 149.148 268.349 151.301 269.911 147.234L286.583 151.289L286.505 148.352L261.618 136.305L259.278 133.09ZM268.38 127.023C269.212 131.891 259.579 125.566 259.286 126L257.263 132.07L258.177 126.148C257.595 125.137 252.169 124.879 253.212 121.957L268.38 127.023ZM259.286 115.891H260.278V121.949H259.286V115.891ZM256.227 134.09L253.227 132.051L253.212 130.055C255.817 129.781 256.583 131.785 256.227 134.09ZM252.849 150.496L253.329 148.856L258.255 150.293L257.774 151.938L252.849 150.496ZM249.704 147.207C251.083 147.992 252.645 148.043 252.188 150.277L244.942 146.91L226.907 141.188C234.325 141.731 243.231 143.531 249.704 147.207ZM245.118 129.047C247.493 128.188 250.989 128.289 252.192 131.051L245.118 129.047ZM243.087 140.156L229.942 137.141C234.138 137.277 240.298 136.07 243.087 140.156ZM237.024 109.809L245.106 109.813V110.832L237.024 110.828V109.809ZM415.06 245.379C409.563 240.031 408.103 229.844 403.794 223.773C399.872 218.254 399.583 219.266 396.27 212.086C373.829 163.492 324.458 131.305 274.981 112.824C265.474 109.273 254.161 105.84 244.106 105.758L247.13 103.754L241.071 101.731C251.642 102.371 262.317 104.106 272.431 107.281C321.681 122.734 363.481 150.934 391.829 194.262C398.942 205.137 407.661 218.465 409.403 230.758C409.481 231.289 413.778 238.481 414.36 240.328C414.81 241.742 414.606 243.82 415.06 245.379ZM414.556 277.246C415.286 281.223 418.103 288.434 418.103 292.422V308.106C416.587 308.18 416.325 304.508 416.2 303.434C415.892 300.793 416.087 298.148 416.149 295.504L413.048 294.941L415.153 292.484C413.622 288.457 414.356 284.449 413.95 280.395C413.634 277.254 410.228 272.695 415.06 272.699C415.411 274.168 414.333 276.027 414.556 277.246ZM420.989 267.332L419.384 267.883L416.645 259.871L418.251 259.324L420.989 267.332Z" fill="#CFE5E3"/>
</svg>
